HIERARCHY
ROOT hip
{
  OFFSET 0 0 0
  CHANNELS 6 Xposition Yposition Zposition Zrotation Yrotation Xrotation
  JOINT abdomen
  {
    OFFSET 0 20.6881 -0.73152
    CHANNELS 3 Zrotation Xrotation Yrotation
    JOINT chest
    {
      OFFSET 0 11.7043 -0.48768
      CHANNELS 3 Zrotation Xrotation Yrotation
      JOINT neck
      {
        OFFSET 0 22.1894 -2.19456
        CHANNELS 3 Zrotation Xrotation Yrotation
        JOINT head
        {
          OFFSET -0.24384 7.07133 1.2192
          CHANNELS 3 Zrotation Xrotation Yrotation
          JOINT leftEye
          {
            OFFSET 4.14528 8.04674 8.04672
            CHANNELS 3 Zrotation Xrotation Yrotation
            End Site
            {
              OFFSET 1 0 0
            }
          }
          JOINT rightEye
          {
            OFFSET -3.6576 8.04674 8.04672
            CHANNELS 3 Zrotation Xrotation Yrotation
            End Site
            {
              OFFSET 1 0 0
            }
          }
        }
      }
      JOINT rCollar
      {
        OFFSET -2.68224 19.2634 -4.8768
        CHANNELS 3 Zrotation Xrotation Yrotation
        JOINT rShldr
        {
          OFFSET -8.77824 -1.95073 1.46304
          CHANNELS 3 Zrotation Xrotation Yrotation
          JOINT rForeArm
          {
            OFFSET -28.1742 -1.7115 0.48768
            CHANNELS 3 Zrotation Xrotation Yrotation
            JOINT rHand
            {
              OFFSET -22.5879 0.773209 7.07136
              CHANNELS 3 Zrotation Xrotation Yrotation
              JOINT rThumb1
              {
                OFFSET -1.2192 -0.487915 3.41376
                CHANNELS 3 Zrotation Xrotation Yrotation
                JOINT rThumb2
                {
                  OFFSET -3.37035 -0.52449 3.41376
                  CHANNELS 3 Zrotation Xrotation Yrotation
                  End Site
                  {
                    OFFSET -1.78271 -1.18214 1.43049
                  }
                }
              }
              JOINT rIndex1
              {
                OFFSET -7.75947 0.938293 5.60832
                CHANNELS 3 Zrotation Xrotation Yrotation
                JOINT rIndex2
                {
                  OFFSET -2.54057 -0.884171 1.56538
                  CHANNELS 3 Zrotation Xrotation Yrotation
                  End Site
                  {
                    OFFSET -1.62519 -0.234802 1.16502
                  }
                }
              }
              JOINT rMid1
              {
                OFFSET -8.24714 1.18213 3.41376
                CHANNELS 3 Zrotation Xrotation Yrotation
                JOINT rMid2
                {
                  OFFSET -3.10165 -0.590103 1.0647
                  CHANNELS 3 Zrotation Xrotation Yrotation
                  End Site
                  {
                    OFFSET -2.48547 -0.328903 0.83742
                  }
                }
              }
              JOINT rRing1
              {
                OFFSET -8.82822 0.546677 1.51678
                CHANNELS 3 Zrotation Xrotation Yrotation
                JOINT rRing2
                {
                  OFFSET -2.60934 -0.819778 -0.0198488
                  CHANNELS 3 Zrotation Xrotation Yrotation
                  End Site
                  {
                    OFFSET -2.33842 -0.294052 0.168128
                  }
                }
              }
              JOINT rPinky1
              {
                OFFSET -8.27202 -0.0477905 -0.4584
                CHANNELS 3 Zrotation Xrotation Yrotation
                JOINT rPinky2
                {
                  OFFSET -1.82734 -0.647385 -0.700984
                  CHANNELS 3 Zrotation Xrotation Yrotation
                  End Site
                  {
                    OFFSET -1.69225 -0.51767 -0.607171
                  }
                }
              }
            }
          }
        }
      }
      JOINT lCollar
      {
        OFFSET 2.68224 19.2634 -4.8768
        CHANNELS 3 Zrotation Xrotation Yrotation
        JOINT lShldr
        {
          OFFSET 8.77824 -1.95073 1.46304
          CHANNELS 3 Zrotation Xrotation Yrotation
          JOINT lForeArm
          {
            OFFSET 28.1742 -1.7115 0.48768
            CHANNELS 3 Zrotation Xrotation Yrotation
            JOINT lHand
            {
              OFFSET 22.5879 0.773209 7.07136
              CHANNELS 3 Zrotation Xrotation Yrotation
              JOINT lThumb1
              {
                OFFSET 1.2192 -0.487915 3.41376
                CHANNELS 3 Zrotation Xrotation Yrotation
                JOINT lThumb2
                {
                  OFFSET 3.37035 -0.52449 3.41376
                  CHANNELS 3 Zrotation Xrotation Yrotation
                  End Site
                  {
                    OFFSET 1.78271 -1.18214 1.43049
                  }
                }
              }
              JOINT lIndex1
              {
                OFFSET 7.75947 0.938293 5.60832
                CHANNELS 3 Zrotation Xrotation Yrotation
                JOINT lIndex2
                {
                  OFFSET 2.54057 -0.884171 1.56538
                  CHANNELS 3 Zrotation Xrotation Yrotation
                  End Site
                  {
                    OFFSET 1.62519 -0.234802 1.16502
                  }
                }
              }
              JOINT lMid1
              {
                OFFSET 8.24714 1.18213 3.41376
                CHANNELS 3 Zrotation Xrotation Yrotation
                JOINT lMid2
                {
                  OFFSET 3.10165 -0.590103 1.0647
                  CHANNELS 3 Zrotation Xrotation Yrotation
                  End Site
                  {
                    OFFSET 2.48547 -0.328903 0.83742
                  }
                }
              }
              JOINT lRing1
              {
                OFFSET 8.82822 0.546677 1.51678
                CHANNELS 3 Zrotation Xrotation Yrotation
                JOINT lRing2
                {
                  OFFSET 2.60934 -0.819778 -0.0198488
                  CHANNELS 3 Zrotation Xrotation Yrotation
                  End Site
                  {
                    OFFSET 2.33842 -0.294052 0.168128
                  }
                }
              }
              JOINT lPinky1
              {
                OFFSET 8.27202 -0.0477905 -0.4584
                CHANNELS 3 Zrotation Xrotation Yrotation
                JOINT lPinky2
                {
                  OFFSET 1.82734 -0.647385 -0.700984
                  CHANNELS 3 Zrotation Xrotation Yrotation
                  End Site
                  {
                    OFFSET 1.69225 -0.51767 -0.607171
                  }
                }
              }
            }
          }
        }
      }
    }
  }
  JOINT rButtock
  {
    OFFSET -8.77824 4.35084 1.2192
    CHANNELS 3 Zrotation Xrotation Yrotation
    JOINT rThigh
    {
      OFFSET 0 -1.70687 -2.19456
      CHANNELS 3 Zrotation Xrotation Yrotation
      JOINT rShin
      {
        OFFSET 0 -36.8199 0.73152
        CHANNELS 3 Zrotation Xrotation Yrotation
        JOINT rFoot
        {
          OFFSET 0.73152 -45.1104 -5.12064
          CHANNELS 3 Zrotation Xrotation Yrotation
          End Site
          {
            OFFSET -1.1221 -3.69964 12.103
          }
        }
      }
    }
  }
  JOINT lButtock
  {
    OFFSET 8.77824 4.35084 1.2192
    CHANNELS 3 Zrotation Xrotation Yrotation
    JOINT lThigh
    {
      OFFSET 0 -1.70687 -2.19456
      CHANNELS 3 Zrotation Xrotation Yrotation
      JOINT lShin
      {
        OFFSET 0 -36.8199 0.73152
        CHANNELS 3 Zrotation Xrotation Yrotation
        JOINT lFoot
        {
          OFFSET -0.73152 -45.1104 -5.12064
          CHANNELS 3 Zrotation Xrotation Yrotation
          End Site
          {
            OFFSET 1.1221 -3.69964 12.103
          }
        }
      }
    }
  }
}
MOTION
Frames:	4
Frame Time:	0.00833333
0.459 47.0365 201.64399999999998 -17.53161 -24.177872 15.830298 9.184169 4.081775 71.174231 -4.046338 -5.809771 -66.426854 -1.755722 32.275226 -156.825092 9.103997 44.11321 173.859462 0.003414 -0.0 -0.002369 -0.002264 0.0 -0.001725 2.459583 -18.216397 -3.668885 37.960645 -1.302818 -52.027931 136.428874 1.804655 10.031091 -74.819595 52.483608 55.324659 -166.631966 -4.304432 89.772342 -127.375259 9.934034 61.213798 151.993989 -72.127214 96.133636 81.50901 -65.566841 25.99596 -0.058525 0.167878 0.030483 -111.957644 60.040436 102.504558 -0.001844 -0.018454 -0.006151 -156.264611 -17.692221 173.936487 -75.779991 -51.667948 -74.249057 -147.11991 13.870669 -143.275566 155.513477 -3.574806 -161.851843 12.560016 -18.302378 58.739435 -66.583357 55.817148 60.225733 -173.316124 26.798432 -168.657592 12.305439 11.51487 -3.095421 106.295505 -0.272213 -96.135594 153.452055 -21.068177 -121.744265 118.107648 45.906498 -96.159018 160.573308 -6.359351 -143.198167 2.067898 14.260115 -2.940028 0.000286 -0.06106 0.017719 -9.304001 12.097313 -1.569756 124.852741 -29.039454 122.622259 160.785637 54.938756 147.305352 0.000563 0.000996 0.000563 -11.166884 10.337981 -155.348232 -18.916312 -38.709282 32.825128 63.097051 -84.672079 151.908563 0.000287 -0.00073 -0.000369 98.611698 -56.938294 -166.870305 88.840208 -22.659828 -1.009009 -130.282734 -53.995232 122.540115
0.4462 46.9911 201.69000000000003 -17.542781 -24.186299 15.842144 9.053101 3.351793 88.305487 -4.877609 -4.477735 -83.559608 11.182529 21.59051 94.083623 -32.944162 5.18504 -74.046847 0.001343 -0.0 -0.001711 0.001343 -0.0 -0.001711 -155.537282 -3.733526 161.884456 149.552382 13.333039 126.846263 -6.698508 27.697082 114.099055 -11.130987 -44.806408 -11.08214 -175.198028 -12.846118 89.808124 26.753338 -66.253924 21.461572 60.461118 -70.523886 15.710872 -160.057596 -21.264696 114.729914 -17.37094 35.631987 12.954374 -163.612535 -6.20204 143.453506 0.002013 0.605766 0.189339 -156.529882 -25.091338 174.786925 10.276036 33.656451 8.862478 -10.6724 -25.841224 -11.474238 82.877336 68.300422 -86.000638 -135.4078 0.605543 -178.557895 -178.180382 -9.330019 -128.330765 -100.532784 -60.149356 -104.477046 -3.050702 -3.032621 0.389109 30.468851 24.495586 -25.521542 129.576207 16.76112 -108.785961 -45.062083 -54.796036 -3.193111 160.887811 -7.337673 -143.345961 164.042845 -7.047108 -143.188592 0.022303 -1.724784 0.541962 156.218733 -45.972958 -177.512562 1.20405 -3.047687 1.114703 137.750867 -13.848976 135.51768 -0.0 -0.000189 -0.000201 -11.672648 12.546707 -0.0 -2.553333 33.952102 -57.553668 22.692163 -9.987431 25.39177 0.000445 -0.001915 -0.000572 100.244116 -55.654866 -81.513225 -111.940544 -76.432006 -141.932004 27.833493 25.49676 -161.945709
0.434 46.9463 201.73499999999999 -17.543309 -24.208551 15.843384 9.165514 4.043822 70.928377 -4.022952 -5.84691 -66.144938 -7.782102 16.25795 -38.866044 30.309131 -10.797256 61.227671 0.002008 -0.0 -0.002631 -0.002989 -0.0 0.00369 -155.53708 -3.733289 161.885217 -46.010793 -9.795511 48.069071 103.530891 -39.629916 -115.880582 -34.351265 27.210976 14.35362 -166.632022 -4.30471 89.77085 142.542666 -46.329824 94.024847 -173.601045 -52.692767 119.892527 19.369722 -9.437788 -9.894303 -160.573363 -6.359451 143.197759 3.435997 -0.618043 0.280611 -0.000672 -0.060819 -0.019281 -155.42052 -1.30071 172.003763 0.098501 0.258675 0.089299 36.597502 81.003931 -0.067504 136.303033 48.980188 -140.37436 -127.53338 33.008693 151.107698 -177.887728 -24.776316 -126.898161 -99.061199 -60.297363 -103.044837 171.704538 -9.389064 -89.948871 91.010048 10.727093 -35.010313 -12.217471 -21.784439 5.120608 -12.773103 1.8965 0.992773 153.320637 13.628696 -138.861683 163.218202 -4.795519 -142.979928 -0.003998 1.770735 -0.554352 155.550583 -1.033701 -171.968313 7.146786 -15.707033 6.727554 -43.592113 83.081385 6.026264 0.001622 0.000416 0.000811 -11.709514 12.569571 -0.0 2.424066 42.72043 -154.635132 175.970695 8.85015 -107.389517 -0.0 -0.000605 -9.8e-05 100.314267 -55.620034 -81.458211 -63.827027 -85.964969 25.407826 4.841511 -35.543334 90.377091
0.42129999999999995 46.9047 201.77999999999997 -17.537096 -24.232474 15.842356 11.425143 5.641192 -0.658015 2.042511 -7.273682 5.799217 11.32164 22.497496 99.695999 -33.322856 8.572666 -78.704925 -0.000957 0.0 -0.002515 0.004721 -0.0 -0.003166 -143.298713 38.837149 147.736732 -97.738387 8.495235 98.076099 179.526471 19.764194 -70.960575 -13.699524 -30.154535 -7.682603 99.080664 -51.215505 44.801345 -161.459807 -21.657154 123.380019 -77.667635 43.029039 64.538482 -166.977038 -14.521287 114.038851 -0.05809 0.167851 0.03156 -155.968049 15.617585 139.902747 -70.380129 -72.130103 -87.280014 -149.934449 -26.429261 179.919807 -156.863155 55.541216 -150.331305 -12.043594 -26.070238 -13.452086 0.16487 0.979181 -0.219257 -75.207824 -23.522157 -84.479024 10.085242 11.300752 -15.426524 9.714041 62.35822 -17.266386 164.887419 -2.56028 -89.605425 -141.908219 -46.001264 -92.768892 148.886285 -12.6099 -120.244418 171.934435 -34.797097 -117.683487 0.968645 2.779525 -0.555152 -29.361286 -60.225028 -6.38957 -0.004197 1.77138 -0.556537 156.672333 -27.661101 -175.089808 -1.24188 3.334623 -1.14354 -2.700305 0.789664 -0.251905 0.000521 0.000557 -0.000669 -11.802186 12.582315 2.374302 14.426466 34.85494 83.555698 -69.712479 -25.905065 -148.843455 -179.973427 75.749962 -0.021864 -144.499423 -17.565409 -180.0 -136.033603 -83.04059 -171.280872 54.099449 38.844526 -164.759147
